<?xml version="1.0" standalone="no"?>
<!DOCTYPE svg PUBLIC "-//W3C//DTD SVG 20010904//EN"
 "http://www.w3.org/TR/2001/REC-SVG-20010904/DTD/svg10.dtd">
<svg version="1.0" xmlns="http://www.w3.org/2000/svg"
 width="500.000000pt" height="500.000000pt" viewBox="0 0 500.000000 500.000000"
 preserveAspectRatio="xMidYMid meet">
<metadata>
Created by potrace 1.16, written by Peter Selinger 2001-2019
</metadata>
<g transform="translate(0.000000,500.000000) scale(0.100000,-0.100000)"
fill="#000000" stroke="none">
<path d="M0 2500 l0 -2500 2500 0 2500 0 0 2500 0 2500 -2500 0 -2500 0 0
-2500z m2072 1013 c23 -20 24 -85 2 -107 -23 -24 -100 -21 -114 3 -15 29 -12
87 6 105 20 21 83 20 106 -1z m444 -51 c36 -29 44 -57 44 -152 0 -90 -1 -93
-31 -121 -30 -28 -34 -29 -132 -29 -96 0 -102 1 -129 27 -27 26 -28 30 -28
131 0 101 1 104 29 133 29 28 32 29 128 29 78 0 102 -4 119 -18z m292 -74 c7
-7 12 -39 12 -73 0 -34 -5 -66 -12 -73 -7 -7 -39 -12 -75 -12 -73 0 -83 11
-83 84 0 72 14 86 85 86 34 0 66 -5 73 -12z m-846 -295 c14 -12 18 -31 18 -78
0 -88 -18 -105 -110 -105 -86 0 -100 15 -100 104 0 83 14 96 103 96 52 0 75
-4 89 -17z m1256 -139 c19 -13 22 -24 22 -76 0 -82 -15 -98 -90 -98 -75 0 -92
14 -98 81 -3 45 0 59 18 82 18 23 29 27 74 27 30 0 61 -6 74 -16z m31 -350
l31 -26 0 -118 c0 -113 -1 -118 -26 -144 -26 -25 -31 -26 -144 -26 -113 0
-118 1 -144 26 -25 26 -26 31 -26 141 l0 115 31 29 c30 28 34 29 139 29 102 0
110 -2 139 -26z m-953 -80 c30 -8 44 -45 44 -114 0 -103 -17 -120 -121 -120
-42 0 -63 5 -83 21 -24 19 -26 26 -26 97 1 76 10 103 40 115 20 7 119 8 146 1z
m530 -494 c0 -80 3 -95 17 -98 26 -5 23 -58 -3 -65 -11 -3 -20 -9 -19 -14 5
-31 -3 -43 -31 -43 -27 0 -30 3 -30 30 l0 30 -75 0 -75 0 0 33 c0 28 20 71 40
87 4 3 21 28 40 55 54 81 60 86 99 83 l36 -3 1 -95z m332 75 c1 -11 -24 -81
-56 -155 l-60 -135 -36 -3 c-20 -2 -36 -1 -36 1 0 3 26 61 59 128 l59 124 -67
5 c-63 5 -66 6 -69 33 l-3 28 103 -3 c94 -3 103 -5 106 -23z m-1228 -140 l0
-155 -35 0 -35 0 0 155 0 155 35 0 35 0 0 -155z m250 58 l65 -98 3 98 3 97 34
0 35 0 0 -155 0 -155 -34 0 c-32 0 -37 6 -100 103 l-66 102 0 -102 0 -103 -35
0 -35 0 0 155 0 155 33 0 c30 0 37 -7 97 -97z"/>
</g>
</svg>
